<svg id="图层_1" data-name="图层 1" xmlns="http://www.w3.org/2000/svg" viewBox="0 0 2741.18 753.02"><defs><style>.cls-1{fill:#fff;stroke:#231815;stroke-miterlimit:10;stroke-width:3px;}</style></defs><path d="M1837.27,559.75c1.07-21.25,2.12-42,3.17-62.69,13-3.29,14.94-2.32,19.66,9.17,3.93,9.53,8,19,12.58,30.08,4.56-11,8.5-20.59,12.56-30.15,5-11.65,5.09-11.67,19.16-9.49,1.1,20.87,2.2,41.82,3.33,63.31h-11.59c-.72-15.24-1.44-30.34-2.16-45.44l-1.3-.41c-4.19,10.36-8.43,20.7-12.54,31.09-1.46,3.72-2.82,6.41-7.94,6.3-5-.11-5.69-3.11-7-6.32q-6.35-15.24-12.73-30.46l-2.67.27c0,11.86.1,23.73,0,35.59C1849.63,561.25,1849.52,561.25,1837.27,559.75Z"/><path d="M1589.32,526.64c9.76,6.49,12.6,13.28,10,22-2,6.53-9.32,11.61-17.87,11.83-8.88.22-17.77,0-27.24,0V496c7.84,0,15.41-.07,23,0,7.83.08,14.92,2.21,18.07,10.1C1598.32,513.83,1597.32,521.11,1589.32,526.64Zm-24,6.45v16.73c5.31,0,10.1.09,14.89,0,5.25-.13,8.76-3.78,8-8.11-.56-3.23-4.59-7.22-7.89-8.25C1575.72,532,1570.4,533.09,1565.28,533.09Zm-.23-9.05c6.88-1.9,12.83-3,18.2-5.46,1.1-.5.87-8.17-.26-8.61-5.47-2.1-11.46-2.87-17.94-4.26Z"/><path d="M1758.24,528.1c0,18.93-14.87,33.47-34.08,33.23a33.21,33.21,0,1,1,34.08-33.23Zm-11.83-.13a22,22,0,0,0-22.29-22.15c-11.68,0-21,10.05-20.93,22.51s9.12,21.76,21.44,21.84C1737.34,550.25,1746.44,541,1746.41,528Z"/><path d="M1612.74,528.43a32.94,32.94,0,0,1,33.14-33.52c18.61-.09,33.74,14.79,33.7,33.12,0,18.82-14.59,33.31-33.36,33.23C1626.82,561.18,1612.88,547.51,1612.74,528.43Zm33.14,21.71a22,22,0,0,0,22.25-22.07,22.07,22.07,0,1,0-44.14-.34A22,22,0,0,0,1645.88,550.14Z"/><path d="M2029.43,535.52,2045,559.21c-10.89,2.94-12.48,2.35-18-6.14-2.92-4.46-5.62-9.1-9-13.17-1.89-2.29-5-3.59-9.13-6.47v26.51h-10.68v-63.5c9.49,0,19.1-.7,28.55.21,8,.78,13.3,6.44,15.09,14.19s.06,15.16-6.47,20.62C2033.58,532.9,2031.61,534,2029.43,535.52Zm-20.52-10.18c7.36-.7,15.36,3.16,19.85-4.67,1.49-2.6.92-9.51-.58-10.17-5.78-2.52-12.32-3.31-19.27-4.91Z"/><path d="M1388.81,522V496.32h11.12v63.81h-11V533.45h-28.4v26.49h-11.1V496.38h11V522Z"/><path d="M1982.36,559.8c-8.73,2.59-14.13.18-15.68-8.81-1-5.84-4.59-7.93-10.28-6.94a23.06,23.06,0,0,1-3.81,0c-13.54,0-13.54,0-18.72,12.16-2,4.62-2,4.62-13.8,3.86,4.55-11.9,9-23.54,13.45-35.18,3.24-8.5,6.21-17.12,9.86-25.44.82-1.87,4-3.91,6-3.76,3.26.23,8.37,1.35,9.27,3.52C1967,519.27,1974.58,539.61,1982.36,559.8ZM1942.24,533H1960c-2.93-7.83-5.63-15-8.85-23.63C1947.9,517.94,1945.27,524.92,1942.24,533Z"/><path d="M1784.2,532.9V560h-11.27V496.26h10.78v24.68l1.89,1c5.54-6.23,11.09-12.44,16.6-18.69,7.18-8.15,7.17-8.16,20-6.78l-26,29.86c9.23,10.95,18.43,21.88,28.06,33.32-9.21,2.3-15.64.55-20.93-6.94s-11.54-13.84-17.39-20.71Z"/><path d="M1459.43,496.23h11.51c0,14.65.74,29.1-.22,43.44-.92,13.92-10.86,21.57-25.51,21.61-13.54,0-23.43-7.4-24.49-20.84-1.16-14.54-.27-29.24-.27-44.19h11c0,13.08,0,25.72,0,38.37,0,10.09,5.38,16.26,14,16.29,8.22,0,13.74-5.92,13.91-15.66C1459.6,522.56,1459.43,509.87,1459.43,496.23Z"/><path d="M2115.44,559.67c-10.13,2.8-16.5-.54-21.85-8A109.73,109.73,0,0,0,2075,532v28h-11V496.15h10.24v24.63l2.81,1.9c2.12-2.86,4.12-5.81,6.38-8.56,2.9-3.52,6.42-6.61,8.93-10.37,4.85-7.28,11.22-9.62,20.44-7.16l-25.61,29.65C2096.55,537.36,2105.81,548.29,2115.44,559.67Z"/><path d="M1329.21,513c-5.33.49-9.19,1.07-13-4-2-2.68-8.56-2.71-13-2.43-1.66.1-4.89,5.44-4.23,6.66a22,22,0,0,0,8.33,8.49c4.58,2.48,10.16,3.08,14.87,5.39,7.68,3.78,11.06,10.29,9.93,18s-5.8,12.91-13.37,14.84c-10,2.57-19.91,2.41-27.35-6.09-2.72-3.11-4-7.47-6.5-12.37,7.24-.27,12.08-2.27,15.09,4.93,2.43,5.8,12.45,6.54,17.52,2.43,4.76-3.86,3.66-10.79-2.57-13.45-4.85-2.06-10.18-3-15.11-4.86-10.17-3.9-14.6-11.5-12.44-20.6,2.33-9.8,12.24-16.09,23.43-14.89S1328.83,502.72,1329.21,513Z"/><path d="M2168.61,513.09c-5.52.1-10.21,1.65-14-4.59-1.5-2.46-8.28-2.76-12.39-2.17-2.06.29-5.51,5.65-4.84,7.19,1.42,3.24,4.83,6,8,8,2.43,1.54,5.78,1.6,8.68,2.47,12.1,3.65,17.37,10.43,16.53,21.13-.73,9.25-7.44,14.61-19.85,16.12-10.84,1.33-26.62-5.73-25.5-19.63,5.44-.83,10.09-1.79,13.64,5,2.56,4.91,8.83,6.18,14.18,3.61,2.57-1.24,5.62-4.34,5.83-6.81s-2.39-6-4.74-7.51c-3-2-7-2.56-10.63-3.62-14.1-4.17-19-10.14-17.52-21.52,1.14-8.84,9.12-15.34,19.48-15.86C2157.61,494.29,2165.72,500.41,2168.61,513.09Z"/><path d="M1235.71,496.3v9.34h-25v17.8h21.92v9.85h-22.11v16.46h25.42v10.19h-37.08V496.3Z"/><path d="M1147.34,496.07h10.77v53.45h25.58v10.6h-36.35Z"/><path d="M1267.56,560.09h-11.11V496.31h11.11Z"/><path d="M1502.9,560.17h-10V496.34h10Z"/><path d="M1346.37,369.7c11.37.76,22.61,1.44,33.84,2.28,17.13,1.28,18.67.07,18.56-16.89q-.76-122.59-1.69-245.18c-.08-13,1.64-14.45,14.31-11.53,9.66,2.23,19.28,4.73,28.83,7.39,7.06,2,9.1,7.06,4.48,12.46-11.4,13.3-8.52,26.76-3,41.35,7.34,19.56,13.48,39.57,20.9,61.66,10.26-10.31,20.32-19.07,28.72-29.2,9.64-11.61,18.22-24.17,26.44-36.84,3.89-6,7.33-7.7,13.13-3.33,9.35,7,18.84,13.92,28.05,21.14,8.13,6.38,7.73,11.94-1.51,17.37-27.49,16.17-55.12,32.1-83.36,48.51,24.5,44.56,62.38,77.74,106.73,105.56-11.77,13-22.23,24.7-32.88,36.22-4.91,5.31-8.65.91-12.29-2.12a267.08,267.08,0,0,1-65.87-81.41c-9.89-18.78-17.81-38.6-26.61-58-1-2.31-2-4.68-4.59-6.68q0,28.71,0,57.41c0,27.93,0,55.87-.12,83.8-.1,26.1-24,44.81-49.11,38.29-2.67-.69-4.68-3.72-7.16-5.43-8.39-5.79-16.2-13.21-25.48-16.71C1346.83,386.14,1343.38,381.35,1346.37,369.7Z"/><path d="M1393.62,193.73c-5.07,15.35-9.46,27.45-13.08,39.79-15.16,51.6-39.85,97.24-82.27,131.7-8.46,6.88-17.94,12.52-27.76,19.3L1259,372.08c50.18-41,70-97.74,85.31-158.4H1286c-18.16,0-22.16-4.57-21-25,23.66,0,47.38-.22,71.1.13,7.35.11,13.31-.74,17.37-7.81,4.17-7.3,10.08-8.62,17.18-3.48C1379,183.51,1387.36,189.31,1393.62,193.73Z"/><path d="M2390.45,188.81c3.06,2.1,6,4.33,9.21,6.27,11.65,7.11,11.82,7.8,3.48,18.47,40.77,29.57,87.57,43.95,139.12,52.84-8,11.92-14.17,21.16-20.3,30.46-10.06,15.27-10.12,15.44-26.7,6.45-13.85-7.52-27.49-15.43-41-23,3.84,8.72-2.94,16-16.12,16.21-17.91.26-35.84.07-53.75.07h-12.06c12.94,17,24.44,33.05,37.09,48.17,6,7.12,4.35,11.71-1.84,16.13-7.53,5.38-15.45,10.24-23.3,15.18-4.65,2.93-7.72,1.29-9.4-3.72-6.61-19.79-13.71-39.44-19.5-59.47-1.24-4.28,2.24-9.94,3.89-16.3-11.19,0-23.32-.37-35.42.13-8.43.34-15.76-.13-18-9.84L2237,315.75,2227,301c28.36-13.3,53.56-30.18,75-51.57,18.69-18.61,35.93-38.86,52.25-59.62,7-8.9,12.11-14.56,23-7.23,1,.7,2.67.46,4,.65Zm-2.73,39.56L2332,271.77c21.87,0,42.89-.84,63.8.32,12.62.7,20.8-3.88,26.95-14Z"/><path d="M2237.19,387.71h75.48c-8.56-25.83-16.79-50.65-25.24-76.18l12.05-8.77c17.35,20,34.37,39.76,51.55,59.37,4.16,4.75,1.4,7.63-2.3,10-8,5-16.22,9.71-25.34,15.12h93c10-27.21,19.89-54.72,30.46-82,.87-2.25,7.08-4.74,9.34-3.75,10.36,4.52,20.19,10.27,30.24,15.52,6,3.16,3.77,7.52,1.23,11.23-13.71,19.94-27.65,39.73-41.38,59.4,9.92,0,21.55.51,33.07-.33,3.22-.23,6.46-4.15,9.11-6.92s4.39-6.1,7.91-11.14c10.5,8.78,20.82,17,30.55,25.95,1.51,1.38,1.42,7.58.06,8.47-5.47,3.58-11.72,8.36-17.7,8.4-86.17.53-172.35.32-258.53.48-5.88,0-8.86-1.64-9.64-7.74C2240.4,399.45,2238.71,394.21,2237.19,387.71Z"/><path d="M2293.35,164.78c-3.15,2.24-6.53,3.81-8.75,6.38-12.6,14.56-24.52,29.73-37.46,44-10.84,11.92-15.83,11.46-28.45-.55,22.81-35.27,42.57-72.2,51.55-115.91l47.17,20.49-20,26.12c18.5,0,35.85.76,53-.53,4.46-.33,8.44-7.1,13.65-11.84l19.44,16.33c-3.75,12.78-10.89,18.26-24.21,16.94-12.61-1.25-25.44-.27-40.81-.27,6.06,9.07,10.41,17.13,16.25,23.89,5.69,6.58,3.82,10-2.75,13.31-.62.31-1.26.58-1.86.9-22.27,11.74-23,11.46-29.72-12.37C2298.18,183.46,2296.11,175.2,2293.35,164.78Z"/><path d="M2390.45,188.81l-9.18-5.56c-.23-3.36-1.59-7.16-.49-10,9.54-24.81,19.52-49.45,29.87-75.38l41.89,18.8-17.36,25.14c4.7.64,8.13,1.45,11.58,1.51,11.35.19,22.77-.57,34.06.31,12.48,1,22.45-1.31,27.29-16.84l29.44,24.92c-5.73,9.54-12.84,12.38-22.43,12-15.75-.64-31.54-.18-50.45-.18l27.7,38.05c-8,5.25-16.18,11.09-24.83,16.23-4.56,2.71-8.69,1.2-10.34-4.32-3.61-12.12-7.39-24.2-10.44-36.47-.93-3.75.31-8,.58-12.45-.76-.16-2.07-.46-3.38-.71-13.74-2.61-24.54,0-30,14.87C2409.9,189.69,2401.86,193.77,2390.45,188.81Z"/><path d="M1861,253.32V187.2h-61.87c-21.73,0-24.09-2.49-24.25-26.76h86.55c0-18.74.43-36.2-.18-53.62-.3-8.69,2.47-12,11.12-10.72,13,2,26,3.69,42.25,6-17,18.56-11,38.25-14.2,58,20.36,0,39.56.08,58.76-.12,1.74,0,4.42-1.31,5-2.72,4.53-10.23,10.91-7,17.23-2.51,8.91,6.32,17.61,13,26.56,19.59-5.06,5.35-10.5,8.92-12.6,13.9-2.29,5.44-1.49,12.18-2.05,18.35-1.39,15.33-2.79,30.66-4.15,45.58,9,3.59,14.61.3,18.79-5.83,5.54-8.1,11.73-8.07,18.89-2.43,7.52,5.93,15.11,11.78,23.84,18.58-14.9,9-11.57,23.16-13.36,35.58-2.39,16.65-3.42,33.52-6.48,50-4.28,23-26.3,40.34-48.78,39.46-2.22-.09-4.85-2.21-6.44-4.09-8.71-10.31-19.28-17.57-32.55-20.41-9.73-2.08-13.19-7.67-10.39-18,9.36,0,18.9-.08,28.44.05,3.78.05,7.55.77,11.33.85,16.21.32,18.35-1,21.43-16.91,3-15.75,5.16-31.68,7.82-48.42H1900.32c0,17.28,0,33.73,0,50.18,0,22.76-.08,45.52.31,68.27.13,7.62-2.28,11.66-10.29,12.09-6.17.33-12.58.55-18.36,2.43-9.18,3-10.76-.77-10.71-8.81.22-36.89.11-73.79.12-110.68v-13.9h-10.32q-42.91.06-85.84.13c-9,0-19.16-15.32-14.43-22.71,1.56-2.43,7.22-3,11-3.08,30.32-.46,60.66-.58,91-.82C1855.2,253.67,1857.58,253.48,1861,253.32Zm39.76-67.65v67.27h53.14c1.11-22.9,2.17-45,3.24-67.27Z"/><path d="M1967.7,115.08c8.43-11.67,8.79-12.43,25.87-4.46,17.35,8.1,34,17.81,50.76,27,6,3.28,7.13,7.63,2.14,13.31-5.68,6.45-10.56,13.6-16.19,20.1-3,3.52-6.72,6-11.18,1C2002.36,153.38,1985.46,134.77,1967.7,115.08Z"/><path d="M1015.82,411.14V394.57h-156c-3.54,16.07-12.3,19.51-39.94,15.11V263.42c8.05,1.84,14.94,3.61,21.91,4.95,10.28,2,20.6,5.05,30.94,5.19,44.12.58,88.26.06,132.39.44,7.72.06,13.43-1.29,16.55-8.82,2.82-6.8,7.72-7.49,13.25-3.72,10.66,7.27,21.09,14.9,34.1,24.15-18.73,8.25-13.83,22.4-14,34.79-.32,25.17-.43,50.35,0,75.52.14,8.16-2.5,12.39-10.7,13C1035.21,409.54,1026.1,410.32,1015.82,411.14Zm-59.41-88.35h58.66V295H956.41Zm-96.52-27.86v27.91H916V294.93Zm155.18,76.31V345H956.62v26.24Zm-98-26.54H858.93c0,7.3-.41,14.13.23,20.85.21,2.16,3.15,5.77,4.91,5.81,17.69.44,35.4.27,53,.27Z"/><path d="M1034.75,99l39.31,23.07c-4.1,10.9-11.48,12.69-19.86,12.7l-83.76.07H957.33v23.29h17.18c22.41,0,44.82.22,67.21-.34,4-.1,8.66-2.74,11.72-5.59,3.63-3.39,6.22-5.93,11.37-2.88,12.06,7.12,24.33,13.9,36.51,20.82l2.07,4.11c-3.47,2.12-7.07,4.05-10.38,6.4-14.31,10.14-28.43,20.55-42.89,30.48-2.43,1.67-6.17,1.45-9.31,2.1-.54-3.16-2-6.51-1.44-9.44,1.59-8,4.05-15.8,6.4-24.58H956.49c0,7.71.06,15.5,0,23.28-.16,15.17-.68,30.34-.51,45.5.12,9.83-4.51,13.33-13.83,13.58-25.14.66-25.11.85-25-24.35,0-19.2,0-38.4,0-58.11H829.94c-3.94,18.41-6,37.75-19.39,53.63-10.52-5.82-20.61-11.47-30.76-17-5.62-3.07-4.69-6.57-1.26-10.8,13.14-16.23,22.85-34.19,26.9-56.44,13.84,11.89,29.65,9.48,45,9.52,22,.06,44,0,66.61,0,.41-7.71.77-14.52,1.2-22.6-4.23-.24-7.84-.62-11.45-.62-27.58-.08-55.15-.07-82.73-.11-17.68,0-19-1.08-24.28-20.28H810c65.83,0,131.66-.16,197.49.17,9.57,0,17.61-.6,22.07-10.46C1030.3,102.39,1032.36,101.26,1034.75,99Z"/><path d="M870.12,230.35c8.59,0,17.2.37,25.77-.11,7.62-.43,9.57,4.27,10.07,10.1.59,6.87-4.06,8.77-9.89,8.77-17.53,0-35.06-.1-52.59-.05-6.89,0-10-3.07-9.77-10.07.25-6.39,3-9.09,9.6-8.76C852.23,230.69,861.18,230.35,870.12,230.35Z"/><path d="M902.87,195.07c2.47,16.46.75,18.67-13.35,18.67-14.43,0-28.86-.26-43.28.09-7.87.19-12-4-12.18-10.8-.23-7.26,5.64-8.06,11.66-8C864.85,195.17,884,195.07,902.87,195.07Z"/><path d="M1000.8,249.12c-7.2,0-14.39-.14-21.59,0-8.3.19-10.59-5.29-10.82-11.92-.27-7.84,5.76-6.89,10.9-6.88,14.4,0,28.79.18,43.18-.07,5.87-.1,10.31.76,10.32,7.9,0,7-3,11-10.4,11C1015.19,249.11,1008,249.14,1000.8,249.12Z"/><path d="M998.43,195.11c7.56,0,15.21-.63,22.64.34,2.64.35,6.35,4.37,6.77,7.14.7,4.63,1.23,11-6.69,11.11-13.74.1-27.55.73-41.2-.43-4.12-.36-9.28-5.2-11.28-9.3-2.4-4.91.21-9.2,7.08-8.93C983.3,195.34,990.87,195.11,998.43,195.11Z"/><rect x="643.5" y="630.56" width="105.66" height="10.34" rx="1.55"/><rect x="789.78" y="630.56" width="105.66" height="10.34" rx="1.55"/><rect x="999.31" y="630.56" width="105.66" height="10.34" rx="1.55"/><rect x="1145.6" y="630.56" width="105.66" height="10.34" rx="1.55"/><rect x="1355.13" y="630.56" width="251.95" height="10.34" rx="1.55"/><rect x="1710.95" y="630.56" width="105.66" height="10.34" rx="1.55"/><rect x="1857.24" y="630.56" width="105.66" height="10.34" rx="1.55"/><rect x="2066.77" y="630.56" width="251.95" height="10.34" rx="1.55"/><rect x="2422.59" y="630.56" width="105.66" height="10.34" rx="1.55"/><rect x="2568.87" y="630.56" width="105.66" height="10.34" rx="1.55"/><path d="M429,552.68V103.37A22.41,22.41,0,0,0,406.63,81H107.16a22.4,22.4,0,0,0-22.4,22.41V553.23c0,.48,0,1,0,1.43,0,.78,0,1.56,0,2.33.34,6.24,2.64,10.93,7.91,15.11q10.8,8.53,21.58,17.1,67.09,53.22,134,106.66c7.65,6.09,11,6,18.63,0q67-53.34,134-106.62L421.33,573c4.89-3.87,7.31-8.08,7.71-14Zm-39.06-1c-.3.34-.61.67-.92,1-15.8,17.54-34.94,28.79-58.82,31.31-20.2,2.14-39.37-1-55.43-14.06a54.9,54.9,0,0,1-14.4-17.25c-5.26-10.2-6.45-21.88-3.05-34.77,5.16-19.6,19.14-29.8,38.55-33.24,9.18-1.63,20.43,3.45,24.8,11.12-2.27.28-4.49.45-6.67.84-8,1.42-15,8.47-16.51,16.52-1.68,8.64,1.35,16.2,8.9,20.84,9.13,5.61,18.48,4.77,27.32-.61,15.36-9.36,22-29.16,15.89-48.26-7.22-22.46-24.09-34.9-46.09-39.95-35-8-66.39.31-92.45,25.1-14.95,14.22-28.51,29.91-42.62,45-11.2,12-22.55,23.77-37.41,31.31-3.56,1.81-7.42,3-11.54,4.63V438.4q59.55-47.26,119-94.68l9.93-7.92c7.65-6.09,11-6,18.63,0l9.88,7.88q59.25,47.2,118.56,94.35,0,49.41.16,98.82A20.77,20.77,0,0,1,390,551.67Z"/><path class="cls-1" d="M309.14,44.33c-24.59,0-47.18-.1-69.78.22-1.67,0-4.16,2.83-4.82,4.83-13.59,41.29-26.9,82.67-40.49,124-1.84,5.56.21,6.3,5,6.23,13.37-.18,26.74-.07,40.11-.06,7.45,0,8.4,1.32,6.18,8.35Q234.18,223,223,258.22c-2.91,9.2-6,18.34-8.69,27.6-.49,1.68.17,3.92.94,5.6.22.46,3,.22,4.2-.42s1.94-2.08,2.76-3.27q48.8-71,97.5-142c1.15-1.67,1.4-3.95,2.07-5.95-2.09-.56-4.18-1.59-6.27-1.61-14.4-.15-28.79-.07-43.19-.14-2.16,0-4.31-.35-7.55-.64Z"/></svg>