<svg id="图层_1" data-name="图层 1" xmlns="http://www.w3.org/2000/svg" viewBox="0 0 737.92 1006.47"><defs><style>.cls-1{fill:#fff;stroke:#231815;stroke-miterlimit:10;stroke-width:3px;}</style></defs><path d="M601.86,757.12V124.5A31.55,31.55,0,0,0,570.31,93H148.68a31.55,31.55,0,0,0-31.55,31.55V757.89c0,.68,0,1.35.07,2v3.29c.47,8.78,3.71,15.38,11.13,21.26q15.21,12,30.38,24.09,94.47,74.93,188.7,150.17c10.77,8.57,15.47,8.51,26.23-.06q94.28-75.09,188.62-150.11,14.37-11.41,28.75-22.81c6.88-5.45,10.29-11.37,10.85-19.63Zm-55-1.43c-.42.49-.87.95-1.3,1.43-22.24,24.69-49.19,40.52-82.81,44.08-28.44,3-55.43-1.35-78-19.8a77.34,77.34,0,0,1-20.28-24.28c-7.41-14.37-9.08-30.81-4.3-49,7.28-27.59,26.95-42,54.28-46.8,12.93-2.29,28.77,4.85,34.92,15.65-3.19.4-6.32.63-9.39,1.18-11.2,2-21.05,11.93-23.25,23.26-2.35,12.17,1.9,22.82,12.53,29.35,12.86,7.9,26,6.71,38.46-.86,21.64-13.17,31-41.06,22.39-68-10.18-31.63-33.92-49.14-64.9-56.24-49.28-11.3-93.48.44-130.17,35.34-21,20-40.13,42.1-60,63.34-15.77,16.86-31.75,33.47-52.68,44.09-5,2.54-10.44,4.21-16.24,6.51V596.21Q249.94,529.67,333.6,462.9l14-11.14c10.77-8.57,15.47-8.51,26.23.06l13.91,11.08q83.43,66.47,166.92,132.84,0,69.57.23,139.14C554.91,743.38,552.22,749.62,546.87,755.69Z"/><path class="cls-1" d="M433.05,41.39c-34.62,0-66.43-.15-98.24.3-2.35,0-5.86,4-6.79,6.8C308.88,106.62,290.14,164.88,271,223c-2.58,7.85.3,8.88,7,8.78,18.82-.25,37.64-.1,56.47-.08,10.49,0,11.83,1.85,8.7,11.76Q327.51,293,311.83,342.53c-4.1,13-8.43,25.82-12.24,38.86-.69,2.36.24,5.51,1.33,7.88.3.65,4.19.31,5.91-.58s2.73-2.94,3.88-4.61q68.7-99.9,137.28-199.89c1.61-2.35,2-5.56,2.91-8.37-2.94-.79-5.88-2.24-8.83-2.27-20.26-.22-40.53-.11-60.8-.2-3,0-6.07-.5-10.63-.91Z"/></svg>